PathFileType	4	(x/y/z)	TRC_MarkerData\Passive\Passive_Pref0005.trc
DataRate	CameraRate	NumFrames	NumMarkers	Units	OrigDataRate	OrigDataStartFrame	OrigNumFrames
240	240	10	50	mm	240	118	313
Frame#	Time	R_AC			L_AC			HEAD			STERN			C7			L_IC			R_IC			L_ASIS			R_ASIS			L_GT			R_GT			L_PSIS			R_PSIS			SACRAL			L_LAT_KNEE			L_MED_KNEE			R_LAT_KNEE			R_MED_KNEE			L_LAT_ANK			L_MED_ANK			R_LAT_ANK			R_MED_ANK			L_THIGH_PROX_POST			L_THIGH_PROX_ANT			L_THIGH_DIST_ANT			L_THIGH_DIST_POST			R_THIGH_PROX_POST			R_THIGH_PROX_ANT			R_THIGH_DIST_ANT			R_THIGH_DIST_POST			L_SHANK_PROX_POST			L_SHANK_PROX_ANT			L_SHANK_DIST_ANT			L_SHANK_DIST_POST			R_SHANK_PROX_POST			R_SHANK_PROX_ANT			R_SHANK_DIST_ANT			R_SHANK_DIST_POST			L_HEEL_LAT			L_HEEL_SUP			L_HEEL_MED			R_HEEL_LAT			R_HEEL_SUP			R_HEEL_MED			L_1ST_MET			L_5TH_MET			L_TOE			R_1ST_MET			R_5TH_MET			R_TOE			
		X1	Y1	Z1	X2	Y2	Z2	X3	Y3	Z3	X4	Y4	Z4	X5	Y5	Z5	X6	Y6	Z6	X7	Y7	Z7	X8	Y8	Z8	X9	Y9	Z9	X10	Y10	Z10	X11	Y11	Z11	X12	Y12	Z12	X13	Y13	Z13	X14	Y14	Z14	X15	Y15	Z15	X16	Y16	Z16	X17	Y17	Z17	X18	Y18	Z18	X19	Y19	Z19	X20	Y20	Z20	X21	Y21	Z21	X22	Y22	Z22	X23	Y23	Z23	X24	Y24	Z24	X25	Y25	Z25	X26	Y26	Z26	X27	Y27	Z27	X28	Y28	Z28	X29	Y29	Z29	X30	Y30	Z30	X31	Y31	Z31	X32	Y32	Z32	X33	Y33	Z33	X34	Y34	Z34	X35	Y35	Z35	X36	Y36	Z36	X37	Y37	Z37	X38	Y38	Z38	X39	Y39	Z39	X40	Y40	Z40	X41	Y41	Z41	X42	Y42	Z42	X43	Y43	Z43	X44	Y44	Z44	X45	Y45	Z45	X46	Y46	Z46	X47	Y47	Z47	X48	Y48	Z48	X49	Y49	Z49	X50	Y50	Z50	

118	0.48906	-284.97	1530.2	454.83	-296.77	1551.5	48.353	-254.85	1862.2	261.77	-218.23	1504	254.08	-353.58	1582.4	250.39	NaN	NaN	NaN	NaN	NaN	NaN	-254.17	1044.5	131.88	-249.06	1057.4	398.18	-357.07	967.05	84.553	-323.13	977.7	449.78	-451.89	1060.9	211.17	-455.63	1054.3	321.72	-463.48	1021.9	264.25	-374.05	568.4	134.03	-377	588.9	272.1	-146.53	586.92	433.9	-144.77	578.08	298.73	-501.95	122.54	174.56	-512.91	124.62	262.08	-160.21	107.54	406.65	-122.67	148.74	314.75	-387.27	790.94	105.28	-326.48	778.44	104.93	-330.52	707.7	119.91	-394.37	717.97	117.06	-262.01	797.17	456.4	-199.93	828.39	451.25	-170.59	757.93	448.17	-234.71	727.9	449.84	-417.37	475.97	156.4	-355.16	466.73	166.33	-364.2	417.92	176.69	-419.95	427.31	156.95	-174.47	400.2	448.32	-108.77	409.52	433.61	-107.59	335.56	423.1	-174.31	325.87	436.25	-561.34	48.69	178.06	-580.5	78.092	207.23	-573.95	53.065	243.65	-221.79	52.61	375.6	-226.31	84.975	344.04	-202.36	63.822	313.48	-354.76	47.817	298.6	-363.61	44.616	187.69	-303.75	59.957	271.43	4.5466	92.744	332.07	-17.533	70.709	437.53	47.01	103.25	374.71
119	0.49324	-279.51	1529.8	454.72	-292.06	1551.2	48.282	-249.75	1861.9	261.82	-213.19	1503.6	253.82	-348.62	1582.1	250.41	NaN	NaN	NaN	NaN	NaN	NaN	-249.79	1044.2	131.6	-243.76	1056.9	397.93	-352.98	966.9	84.608	-317.91	977.27	449.71	-446.72	1060.6	211.45	-450.63	1054.2	322.12	-458.74	1021.8	264.65	-371.51	568.31	134.11	-374.35	588.8	272.19	-142.23	586.12	433.15	-140.68	577.13	298.04	-501.65	122.82	174.55	-512.6	124.93	262.1	-145.2	106.25	405.87	-108.73	148.55	314.05	-383.81	790.98	105.39	-323.11	778.25	104.97	-327.4	707.53	119.93	-391.21	718.06	117.12	-257.52	796.46	456.15	-195.32	827.49	451.03	-166.24	756.95	447.84	-230.45	727.12	449.46	-415.26	476.07	156.47	-353.09	466.55	166.4	-362.37	417.76	176.76	-418.08	427.44	157.01	-166.59	398.7	447.56	-101.1	409.53	432.96	-98.214	335.63	422.41	-164.71	324.39	435.46	-561.23	49.116	178.08	-580.23	78.517	207.28	-573.82	53.521	243.67	-205.52	49.971	374.72	-210.82	82.303	343.21	-186.37	61.828	312.59	-354.65	47.716	298.62	-363.52	44.596	187.71	-303.59	59.708	271.47	19.764	95.547	331.18	-1.7166	72.763	436.61	62.01	106.89	373.85
120	0.49742	-274.04	1529.3	454.61	-287.36	1550.9	48.217	-244.64	1861.4	261.87	-208.14	1503.2	253.56	-343.63	1581.7	250.43	NaN	NaN	NaN	NaN	NaN	NaN	-245.4	1043.8	131.33	-238.42	1056.4	397.68	-348.87	966.74	84.671	-312.66	976.81	449.64	-441.57	1060.2	211.76	-445.58	1053.9	322.53	-453.98	1021.6	265.07	-368.95	568.21	134.2	-371.69	588.68	272.29	-138.01	585.25	432.4	-136.67	576.13	297.33	-501.34	123.11	174.53	-512.29	125.25	262.14	-130.3	105.15	405.02	-94.902	148.55	313.29	-380.34	791.02	105.51	-319.72	778.04	105	-324.27	707.34	119.96	-388.04	718.14	117.19	-253.04	795.71	455.9	-190.71	826.52	450.83	-161.91	755.89	447.51	-226.23	726.29	449.09	-413.15	476.17	156.55	-351.01	466.35	166.47	-360.53	417.6	176.83	-416.19	427.56	157.08	-158.8	397.23	446.77	-93.554	409.56	432.29	-88.969	335.75	421.7	-155.21	322.98	434.63	-561.12	49.548	178.11	-579.95	78.945	207.33	-573.7	53.982	243.69	-189.32	47.552	373.74	-195.41	79.841	342.29	-170.47	60.061	311.62	-354.53	47.621	298.64	-363.43	44.578	187.74	-303.43	59.461	271.51	34.79	98.569	330.26	13.917	75.02	435.65	76.793	110.73	372.99
121	0.5016	-268.54	1528.9	454.51	-282.65	1550.6	48.158	-239.51	1861	261.93	-203.07	1502.8	253.31	-338.62	1581.4	250.46	NaN	NaN	NaN	NaN	NaN	NaN	-240.98	1043.4	131.07	-233.05	1055.9	397.43	-344.75	966.55	84.741	-307.36	976.3	449.58	-436.47	1059.8	212.09	-440.49	1053.7	322.93	-449.18	1021.4	265.51	-366.39	568.1	134.28	-369.02	588.55	272.39	-133.87	584.33	431.65	-132.73	575.08	296.63	-501.04	123.4	174.51	-511.98	125.57	262.17	-115.54	104.24	404.09	-81.204	148.73	312.48	-376.85	791.04	105.63	-316.32	777.83	105.03	-321.12	707.15	119.98	-384.86	718.21	117.26	-248.58	794.91	455.66	-186.1	825.48	450.63	-157.61	754.75	447.2	-222.04	725.4	448.72	-411.03	476.25	156.63	-348.93	466.15	166.54	-358.68	417.44	176.9	-414.3	427.67	157.14	-151.11	395.78	445.94	-86.132	409.59	431.6	-79.855	335.92	420.96	-145.81	321.63	433.75	-561	49.987	178.13	-579.67	79.379	207.38	-573.57	54.447	243.72	-173.21	45.356	372.67	-180.08	77.591	341.27	-154.67	58.526	310.56	-354.42	47.532	298.66	-363.34	44.562	187.76	-303.27	59.217	271.55	49.61	101.8	329.32	29.348	77.472	434.65	91.344	114.76	372.11
122	0.50578	-263.02	1528.4	454.41	-277.93	1550.2	48.104	-234.36	1860.5	261.99	-197.98	1502.3	253.06	-333.58	1581	250.5	NaN	NaN	NaN	NaN	NaN	NaN	-236.56	1043	130.81	-227.64	1055.3	397.18	-340.61	966.35	84.82	-302.02	975.76	449.51	-431.4	1059.4	212.45	-435.34	1053.4	323.33	-444.36	1021.2	265.96	-363.81	567.98	134.37	-366.33	588.41	272.49	-129.79	583.34	430.9	-128.86	573.98	295.92	-500.74	123.69	174.5	-511.67	125.9	262.21	-100.93	103.52	403.08	-67.646	149.09	311.61	-373.34	791.06	105.75	-312.9	777.6	105.06	-317.96	706.94	120.01	-381.67	718.27	117.33	-244.11	794.06	455.43	-181.49	824.37	450.45	-153.32	753.54	446.9	-217.89	724.46	448.35	-408.9	476.33	156.71	-346.84	465.93	166.61	-356.82	417.27	176.97	-412.4	427.78	157.21	-143.5	394.35	445.08	-78.833	409.63	430.91	-70.875	336.14	420.21	-136.52	320.35	432.83	-560.89	50.433	178.16	-579.39	79.82	207.44	-573.43	54.917	243.74	-157.22	43.383	371.49	-164.86	75.558	340.16	-138.98	57.222	309.41	-354.3	47.45	298.67	-363.25	44.546	187.79	-303.12	58.975	271.58	64.209	105.23	328.36	44.558	80.105	433.63	105.65	118.96	371.24
123	0.50996	-257.48	1527.9	454.32	-273.22	1549.8	48.057	-229.21	1860.1	262.05	-192.88	1501.8	252.81	-328.51	1580.5	250.55	NaN	NaN	NaN	NaN	NaN	NaN	-232.11	1042.5	130.55	-222.2	1054.8	396.93	-336.45	966.14	84.905	-296.64	975.18	449.45	-426.38	1058.9	212.85	-430.15	1053.1	323.73	-439.51	1020.9	266.42	-361.23	567.84	134.46	-363.62	588.25	272.59	-125.78	582.31	430.15	-125.04	572.85	295.21	-500.44	123.99	174.49	-511.35	126.22	262.25	-86.478	102.97	401.98	-54.239	149.62	310.68	-369.82	791.06	105.88	-309.47	777.36	105.1	-314.79	706.73	120.03	-378.45	718.32	117.41	-239.65	793.16	455.21	-176.87	823.19	450.28	-149.05	752.25	446.6	-213.75	723.46	447.99	-406.75	476.4	156.79	-344.74	465.71	166.68	-354.96	417.09	177.03	-410.49	427.88	157.27	-135.99	392.95	444.19	-71.656	409.68	430.2	-62.031	336.39	419.43	-127.33	319.12	431.87	-560.77	50.886	178.19	-579.11	80.269	207.5	-573.3	55.393	243.78	-141.35	41.633	370.19	-149.77	73.74	338.92	-123.42	56.15	308.14	-354.18	47.372	298.68	-363.16	44.532	187.82	-302.97	58.737	271.62	78.575	108.85	327.39	59.525	82.906	432.58	119.69	123.33	370.38
124	0.51414	-251.91	1527.3	454.23	-268.49	1549.4	48.017	-224.04	1859.6	262.13	-187.77	1501.3	252.57	-323.4	1580.1	250.61	NaN	NaN	NaN	NaN	NaN	NaN	-227.64	1042.1	130.3	-216.73	1054.1	396.67	-332.26	965.9	84.996	-291.21	974.56	449.38	-421.4	1058.5	213.29	-424.9	1052.7	324.11	-434.62	1020.7	266.89	-358.63	567.7	134.55	-360.89	588.08	272.69	-121.8	581.23	429.41	-121.26	571.68	294.5	-500.14	124.28	174.48	-511.03	126.56	262.29	-72.216	102.59	400.79	-40.996	150.33	309.69	-366.28	791.05	106	-306.02	777.1	105.13	-311.6	706.5	120.06	-375.22	718.36	117.48	-235.18	792.23	455	-172.24	821.96	450.11	-144.79	750.9	446.31	-209.63	722.42	447.64	-404.59	476.46	156.88	-342.62	465.47	166.76	-353.09	416.9	177.1	-408.57	427.98	157.34	-128.57	391.57	443.26	-64.599	409.72	429.49	-53.325	336.69	418.63	-118.27	317.95	430.85	-560.65	51.347	178.22	-578.84	80.726	207.56	-573.16	55.875	243.81	-125.63	40.103	368.77	-134.82	72.138	337.57	-108.01	55.308	306.77	-354.06	47.299	298.69	-363.07	44.52	187.85	-302.82	58.502	271.65	92.692	112.64	326.41	74.232	85.854	431.5	133.46	127.83	369.54
125	0.51832	-246.33	1526.7	454.16	-263.76	1548.9	47.984	-218.85	1859	262.21	-182.63	1500.8	252.33	-318.26	1579.6	250.67	NaN	NaN	NaN	NaN	NaN	NaN	-223.15	1041.6	130.06	-211.23	1053.5	396.4	-328.06	965.65	85.092	-285.74	973.9	449.32	-416.47	1058	213.77	-419.6	1052.3	324.49	-429.7	1020.4	267.37	-356.01	567.53	134.64	-358.14	587.89	272.79	-117.87	580.1	428.69	-117.51	570.49	293.8	-499.84	124.58	174.48	-510.7	126.89	262.33	-58.158	102.37	399.51	-27.928	151.2	308.63	-362.72	791.04	106.13	-302.55	776.83	105.16	-308.39	706.27	120.09	-371.96	718.4	117.55	-230.69	791.25	454.8	-167.59	820.68	449.95	-140.52	749.48	446.03	-205.51	721.33	447.29	-402.42	476.51	156.96	-340.5	465.22	166.83	-351.21	416.7	177.17	-406.64	428.06	157.41	-121.25	390.21	442.31	-57.661	409.76	428.77	-44.761	337.01	417.81	-109.32	316.84	429.79	-560.53	51.815	178.25	-578.57	81.193	207.63	-573.02	56.363	243.85	-110.09	38.787	367.21	-120.03	70.75	336.1	-92.758	54.692	305.27	-353.94	47.23	298.7	-362.98	44.509	187.88	-302.67	58.27	271.68	106.55	116.59	325.42	88.656	88.927	430.41	146.94	132.45	368.72
126	0.5225	-240.72	1526.1	454.08	-259.01	1548.4	47.959	-213.66	1858.5	262.3	-177.48	1500.2	252.1	-313.09	1579.1	250.75	NaN	NaN	NaN	NaN	NaN	NaN	-218.64	1041.1	129.82	-205.7	1052.8	396.13	-323.84	965.37	85.194	-280.22	973.21	449.26	-411.57	1057.4	214.31	-414.25	1051.9	324.85	-424.75	1020	267.87	-353.38	567.36	134.73	-355.36	587.69	272.89	-113.97	578.94	427.97	-113.79	569.28	293.1	-499.53	124.89	174.48	-510.36	127.23	262.38	-44.322	102.31	398.13	-15.047	152.22	307.52	-359.13	791	106.25	-299.06	776.54	105.19	-305.16	706.02	120.12	-368.69	718.42	117.63	-226.19	790.24	454.6	-162.92	819.34	449.79	-136.24	748.02	445.75	-201.38	720.21	446.95	-400.23	476.55	157.05	-338.36	464.96	166.9	-349.31	416.49	177.24	-404.69	428.14	157.48	-114.03	388.87	441.32	-50.839	409.79	428.04	-36.338	337.36	416.97	-100.49	315.77	428.67	-560.41	52.291	178.29	-578.31	81.67	207.69	-572.88	56.857	243.89	-94.751	37.678	365.51	-105.42	69.571	334.49	-77.689	54.297	303.65	-353.82	47.163	298.71	-362.88	44.499	187.91	-302.52	58.042	271.71	120.13	120.66	324.44	102.78	92.1	429.29	160.11	137.17	367.93
127	0.52668	-235.1	1525.5	454.02	-254.25	1547.9	47.942	-208.46	1857.9	262.39	-172.31	1499.6	251.88	-307.89	1578.5	250.83	NaN	NaN	NaN	NaN	NaN	NaN	-214.11	1040.6	129.59	-200.15	1052.1	395.85	-319.6	965.07	85.299	-274.66	972.49	449.21	-406.7	1056.9	214.88	-408.85	1051.4	325.2	-419.76	1019.6	268.37	-350.73	567.17	134.82	-352.56	587.47	272.99	-110.08	577.73	427.27	-110.07	568.05	292.4	-499.23	125.2	174.48	-510.02	127.58	262.43	-30.728	102.38	396.65	-2.3666	153.38	306.34	-355.53	790.96	106.37	-295.55	776.23	105.22	-301.9	705.76	120.15	-365.39	718.43	117.7	-221.65	789.2	454.42	-158.22	817.97	449.63	-131.95	746.51	445.46	-197.24	719.05	446.61	-398.02	476.59	157.14	-336.21	464.69	166.98	-347.4	416.28	177.31	-402.73	428.21	157.55	-106.9	387.55	440.29	-44.13	409.8	427.31	-28.06	337.72	416.12	-91.793	314.76	427.51	-560.28	52.777	178.33	-578.05	82.157	207.76	-572.73	57.358	243.93	-79.628	36.768	363.66	-91.008	68.595	332.74	-62.82	54.114	301.9	-353.69	47.099	298.73	-362.79	44.491	187.94	-302.38	57.816	271.74	133.43	124.85	323.47	116.58	95.346	428.15	172.97	141.96	367.17
